<svg xmlns="http://www.w3.org/2000/svg" viewBox="0 0 500 363">
  <g fill="#000000">
    <path class="a-logo__path1" d="M500,6A83.16,83.16,0,0,0,385.83,82.82h0l0,259.41h-7.05c-57.31,0-73.29-23-165.36-144.64C116.6,68.92,95.47,41.67,23.58,41.67H21.52v-.05c-7.57.14-13.73.14-21.44,3v26h0L0,333.43s0,0,0,0V357a83.13,83.13,0,0,0,114.18-76.23h0v-.88c0-.08,0-.17,0-.27s0,0,0,0V128.41a282,282,0,0,0-21.13-23V280.75h0c-.21,34.18-27.78,61-62,61a60.69,60.69,0,0,1-9.78-.81V62.81h7.05c56.85,0,71.88,20.66,168.19,147.46,95.84,125.86,117,152.63,187.46,152.63H387a.19.19,0,0,1,0-.07c6.88-.12,12.73-.3,19.92-3v-26l0,0-.06-251.1h0a61.95,61.95,0,0,1,71.87-60.76v279h-7c-19.56,0-34.3-2.69-48.88-11.05v22.23c15.78,7,32.63,9.49,54,9.49h1.6v0c7.56-.16,13.7-.16,21.43-3V29.52h0Z"/>
    <path class="a-logo__path1" d="M93.05,38.09a119.11,119.11,0,0,1,21.13,15V21.68h7.06c56.84,0,71.88,20.66,168.18,147.47,34.84,45.74,59.79,78.33,80.83,101.37V239.4c-16.79-20.55-37.12-47.55-63.9-82.93C209.57,27.79,188.43.55,116.54.55h-2.1V.49c-7.58.15-13.71.15-21.43,3l0,26s0,0,0,0Z"/>
  </g>
</svg>