<?xml version="1.0" encoding="UTF-8" standalone="no"?>
<svg width="50px" height="50px" viewBox="0 0 50 50" version="1.1" xmlns="http://www.w3.org/2000/svg" xmlns:xlink="http://www.w3.org/1999/xlink">
    <!-- Generator: Sketch 45.2 (43514) - http://www.bohemiancoding.com/sketch -->
    <title>icon-search</title>
    <desc>Created with Sketch.</desc>
    <defs></defs>
    <g id="icon-search" fill-rule="nonzero" fill="#000000">
        <path xmlns="http://www.w3.org/2000/svg" d="M21.975 39.95C11.495 39.95 3 31.455 3 20.975 3 10.495 11.495 2 21.975 2c10.48 0 18.975 8.495 18.975 18.975 0 5.24-2.124 9.984-5.558 13.417l8.924 8.924a1.56 1.56 0 0 1-.017 2.215 1.563 1.563 0 0 1-2.215.017l-9.11-9.11a18.889 18.889 0 0 1-10.999 3.512zm0-2.232c9.247 0 16.743-7.496 16.743-16.743 0-9.247-7.496-16.743-16.743-16.743-9.247 0-16.743 7.496-16.743 16.743 0 9.247 7.496 16.743 16.743 16.743z"/>
    </g>
</svg>
